<svg width="92" height="48" viewBox="0 0 92 48" fill="none" xmlns="http://www.w3.org/2000/svg">
<rect x="0.5" y="0.5" width="91" height="47" rx="7.5" stroke="#3E3F48"/>
<path d="M13.6165 29.5V17.8636H21.071V19.6307H15.7244V22.7898H20.5597V24.5568H15.7244V29.5H13.6165ZM22.9006 29.5V20.7727H24.9574V29.5H22.9006ZM23.9347 19.5341C23.6089 19.5341 23.3286 19.4261 23.0938 19.2102C22.8589 18.9905 22.7415 18.7273 22.7415 18.4205C22.7415 18.1098 22.8589 17.8466 23.0938 17.6307C23.3286 17.411 23.6089 17.3011 23.9347 17.3011C24.2642 17.3011 24.5445 17.411 24.7756 17.6307C25.0104 17.8466 25.1278 18.1098 25.1278 18.4205C25.1278 18.7273 25.0104 18.9905 24.7756 19.2102C24.5445 19.4261 24.2642 19.5341 23.9347 19.5341ZM29.1293 17.8636V29.5H27.0724V17.8636H29.1293ZM35.6023 20.7727V22.3636H30.5852V20.7727H35.6023ZM31.8239 18.6818H33.8807V26.875C33.8807 27.1515 33.9223 27.3636 34.0057 27.5114C34.0928 27.6553 34.2064 27.7538 34.3466 27.8068C34.4867 27.8598 34.642 27.8864 34.8125 27.8864C34.9413 27.8864 35.0587 27.8769 35.1648 27.858C35.2746 27.839 35.358 27.822 35.4148 27.8068L35.7614 29.4148C35.6515 29.4527 35.4943 29.4943 35.2898 29.5398C35.089 29.5852 34.8428 29.6117 34.5511 29.6193C34.036 29.6345 33.572 29.5568 33.1591 29.3864C32.7462 29.2121 32.4186 28.9432 32.1761 28.5795C31.9375 28.2159 31.8201 27.7614 31.8239 27.2159V18.6818ZM41.0923 29.6705C40.2173 29.6705 39.4616 29.4886 38.8253 29.125C38.1927 28.7576 37.706 28.2386 37.3651 27.5682C37.0241 26.8939 36.8537 26.1004 36.8537 25.1875C36.8537 24.2898 37.0241 23.5019 37.3651 22.8239C37.7098 22.142 38.1908 21.6117 38.8082 21.233C39.4257 20.8504 40.151 20.6591 40.9844 20.6591C41.5223 20.6591 42.0298 20.7462 42.5071 20.9205C42.9882 21.0909 43.4124 21.3561 43.7798 21.7159C44.151 22.0758 44.4427 22.5341 44.6548 23.0909C44.867 23.6439 44.973 24.303 44.973 25.0682V25.6989H37.8196V24.3125H43.0014C42.9976 23.9186 42.9124 23.5682 42.7457 23.2614C42.5791 22.9508 42.3461 22.7064 42.0469 22.5284C41.7514 22.3504 41.4067 22.2614 41.0128 22.2614C40.5923 22.2614 40.223 22.3636 39.9048 22.5682C39.5866 22.7689 39.3385 23.0341 39.1605 23.3636C38.9863 23.6894 38.8973 24.0473 38.8935 24.4375V25.6477C38.8935 26.1553 38.9863 26.5909 39.1719 26.9545C39.3575 27.3144 39.617 27.5909 39.9503 27.7841C40.2836 27.9735 40.6738 28.0682 41.1207 28.0682C41.42 28.0682 41.6908 28.0265 41.9332 27.9432C42.1757 27.8561 42.3859 27.7292 42.5639 27.5625C42.742 27.3958 42.8764 27.1894 42.9673 26.9432L44.8878 27.1591C44.7666 27.6667 44.5355 28.1098 44.1946 28.4886C43.8575 28.8636 43.4257 29.1553 42.8991 29.3636C42.3726 29.5682 41.7704 29.6705 41.0923 29.6705ZM46.7131 29.5V20.7727H48.7074V22.2273H48.7983C48.9574 21.7235 49.2301 21.3352 49.6165 21.0625C50.0066 20.786 50.4517 20.6477 50.9517 20.6477C51.0653 20.6477 51.1922 20.6534 51.3324 20.6648C51.4763 20.6723 51.5956 20.6856 51.6903 20.7045V22.5966C51.6032 22.5663 51.465 22.5398 51.2756 22.517C51.09 22.4905 50.91 22.4773 50.7358 22.4773C50.3608 22.4773 50.0237 22.5587 49.7244 22.7216C49.429 22.8807 49.196 23.1023 49.0256 23.3864C48.8551 23.6705 48.7699 23.9981 48.7699 24.3693V29.5H46.7131Z" fill="#E1E1E5"/>
<path d="M59 18H77" stroke="#EDEDF0" stroke-width="1.5" stroke-linecap="round" stroke-linejoin="round"/>
<path d="M63 24L73 24" stroke="#EDEDF0" stroke-width="1.5" stroke-linecap="round" stroke-linejoin="round"/>
<path d="M67 30L69 30" stroke="#EDEDF0" stroke-width="1.5" stroke-linecap="round" stroke-linejoin="round"/>
</svg>
