<svg width="48" height="37" viewBox="0 0 48 37" fill="none" xmlns="http://www.w3.org/2000/svg">
<rect x="0.5" y="1" width="47" height="35" rx="17.5" fill="#212126"/>
<rect x="0.5" y="1" width="47" height="35" rx="17.5" stroke="#E40C0C"/>
<path d="M18.8011 15.8636C18.7415 15.3598 18.4995 14.9688 18.0753 14.6903C17.651 14.4119 17.1307 14.2727 16.5142 14.2727C16.0634 14.2727 15.669 14.3456 15.331 14.4915C14.9962 14.6373 14.7344 14.8378 14.5455 15.093C14.3598 15.3482 14.267 15.6383 14.267 15.9631C14.267 16.2348 14.3317 16.4685 14.4609 16.6641C14.5935 16.8563 14.7625 17.017 14.968 17.1463C15.1735 17.2723 15.389 17.3767 15.6143 17.4595C15.8397 17.5391 16.0469 17.6037 16.2358 17.6534L17.2699 17.9318C17.535 18.0014 17.83 18.0975 18.1548 18.2202C18.483 18.3428 18.7962 18.5102 19.0945 18.7223C19.3961 18.9311 19.6446 19.1996 19.8402 19.5277C20.0357 19.8558 20.1335 20.2585 20.1335 20.7358C20.1335 21.286 19.9893 21.7831 19.701 22.2273C19.416 22.6714 18.9983 23.0244 18.4482 23.2862C17.9013 23.5481 17.2367 23.679 16.4545 23.679C15.7254 23.679 15.094 23.5613 14.5604 23.326C14.0301 23.0907 13.6125 22.7625 13.3075 22.3416C13.0059 21.9207 12.8352 21.4318 12.7955 20.875H14.0682C14.1013 21.2595 14.2306 21.5777 14.456 21.8295C14.6847 22.0781 14.973 22.2637 15.321 22.3864C15.6723 22.5057 16.0502 22.5653 16.4545 22.5653C16.9252 22.5653 17.3478 22.4891 17.7223 22.3366C18.0968 22.1809 18.3935 21.9654 18.6122 21.6903C18.831 21.4119 18.9403 21.0871 18.9403 20.7159C18.9403 20.3778 18.8459 20.1027 18.657 19.8906C18.468 19.6785 18.2195 19.5062 17.9112 19.3736C17.603 19.241 17.2699 19.125 16.9119 19.0256L15.6591 18.6676C14.8636 18.4389 14.2339 18.1125 13.7699 17.6882C13.3059 17.264 13.0739 16.7088 13.0739 16.0227C13.0739 15.4527 13.228 14.9555 13.5362 14.5312C13.8478 14.1037 14.2654 13.7723 14.7891 13.5369C15.3161 13.2983 15.9044 13.179 16.554 13.179C17.2102 13.179 17.7936 13.2966 18.304 13.532C18.8144 13.764 19.2188 14.0821 19.517 14.4865C19.8187 14.8909 19.9777 15.3499 19.9943 15.8636H18.8011ZM25.2033 23.6591C24.4675 23.6591 23.8328 23.4967 23.2992 23.1719C22.7689 22.8438 22.3596 22.3864 22.0712 21.7997C21.7862 21.2098 21.6436 20.5237 21.6436 19.7415C21.6436 18.9593 21.7862 18.2699 22.0712 17.6733C22.3596 17.0734 22.7606 16.6061 23.2743 16.2713C23.7914 15.9332 24.3946 15.7642 25.084 15.7642C25.4817 15.7642 25.8745 15.8305 26.2623 15.9631C26.65 16.0956 27.003 16.3111 27.3212 16.6094C27.6394 16.9044 27.8929 17.2955 28.0819 17.7827C28.2708 18.2699 28.3652 18.8698 28.3652 19.5824V20.0795H22.4789V19.0653H27.1721C27.1721 18.6345 27.0859 18.25 26.9135 17.9119C26.7445 17.5739 26.5025 17.3071 26.1877 17.1115C25.8761 16.916 25.5082 16.8182 25.084 16.8182C24.6167 16.8182 24.2123 16.9342 23.8709 17.1662C23.5328 17.3949 23.2727 17.6932 23.0904 18.0611C22.9081 18.429 22.8169 18.8234 22.8169 19.2443V19.9205C22.8169 20.4972 22.9164 20.986 23.1152 21.3871C23.3174 21.7848 23.5975 22.0881 23.9554 22.2969C24.3134 22.5024 24.7293 22.6051 25.2033 22.6051C25.5115 22.6051 25.79 22.562 26.0385 22.4759C26.2904 22.3864 26.5075 22.2538 26.6898 22.0781C26.8721 21.8991 27.013 21.6771 27.1124 21.4119L28.2459 21.7301C28.1266 22.1146 27.9261 22.4527 27.6444 22.7443C27.3626 23.0327 27.0146 23.258 26.6003 23.4205C26.186 23.5795 25.7203 23.6591 25.2033 23.6591ZM31.3233 13.3182V23.5H30.15V13.3182H31.3233ZM34.6456 13.3182V23.5H33.4723V13.3182H34.6456Z" fill="#E40C0C"/>
</svg>
